<svg width="2823" height="2472" xmlns="http://www.w3.org/2000/svg" xmlns:xlink="http://www.w3.org/1999/xlink" xml:space="preserve" overflow="hidden"><defs><clipPath id="clip0"><rect x="789" y="2" width="2823" height="2472"/></clipPath></defs><g clip-path="url(#clip0)" transform="translate(-789 -2)"><path d="M2218.42 1412.38 2226.66 1446.62C2300.46 1700.42 2522.61 1891.09 2793.02 1918.54L2830.25 1920.42 2808.63 1979.47C2708.44 2216.31 2473.88 2382.5 2200.5 2382.5 1927.12 2382.5 1692.56 2216.31 1592.37 1979.47L1570.75 1920.42 1607.98 1918.54C1874.23 1891.51 2093.69 1706.25 2170.83 1458.29L2182.6 1412.49 2200.5 1413.28ZM2230.75 1064.24 2267.98 1066.12C2413.59 1080.91 2545.2 1143.01 2647.19 1236.82L2647.9 1237.53 2620.32 1262.6C2522.53 1343.29 2401.1 1396.36 2267.98 1409.88L2218.42 1412.38 2212.31 1386.98C2204.56 1346.53 2200.5 1304.77 2200.5 1262.06 2200.5 1193.72 2210.89 1127.82 2230.17 1065.83ZM2170.18 1064.06 2170.83 1065.83C2190.11 1127.82 2200.5 1193.72 2200.5 1262.06 2200.5 1307.61 2195.88 1352.09 2187.09 1395.05L2182.6 1412.49 2141.35 1410.67C2004.96 1398.56 1880.5 1344.97 1780.68 1262.6L1753.61 1238 1780.68 1213.4C1880.5 1131.03 2004.96 1077.44 2141.35 1065.33ZM2860.5 602.167C3225.01 602.167 3520.5 897.61 3520.5 1262.06 3520.5 1626.51 3225.01 1921.95 2860.5 1921.95L2830.25 1920.42 2830.83 1918.84C2850.11 1856.85 2860.5 1790.94 2860.5 1722.61 2860.5 1551.77 2795.57 1396.1 2689.04 1278.91L2647.9 1237.53 2667.19 1220.01C2786.63 1100.59 2860.5 935.616 2860.5 753.392 2860.5 707.836 2855.88 663.358 2847.09 620.401L2842.58 602.846ZM1540.5 602.167 1558.37 603.069 1553.91 620.401C1545.12 663.358 1540.5 707.836 1540.5 753.392 1540.5 935.616 1614.37 1100.59 1733.81 1220.01L1753.61 1238 1733.81 1255.99C1614.37 1375.41 1540.5 1540.38 1540.5 1722.61 1540.5 1790.94 1550.89 1856.85 1570.17 1918.84L1570.75 1920.42 1540.5 1921.95C1175.99 1921.95 880.5 1626.51 880.5 1262.06 880.5 897.61 1175.99 602.167 1540.5 602.167ZM2200.5 93.5C2496.66 93.5 2747.26 288.539 2830.83 557.16L2842.58 602.846 2809.72 604.091C2558.32 623.216 2346.3 783.157 2252.37 1005.2L2230.75 1064.24 2200.5 1062.72 2170.18 1064.06 2148.63 1005.2C2056.79 788.091 1852.04 630.355 1607.98 605.574L1558.37 603.069 1570.17 557.16C1653.74 288.539 1904.34 93.5 2200.5 93.5Z" stroke="#56C3CE" stroke-width="183.333" stroke-miterlimit="8" fill="none" fill-rule="evenodd"/></g></svg>